# xmcd
#
# Track frame offsets: 
#        150
#        9655
#        18265
#        26782
#        38870
#        48352
#        58110
#        67802
#        77847
#        88290
#        97620
#        106927
#        117667
#        125947
#        136035
#        147272
#        157387
#        166052
#        175712
#        186580
#        195882
#        204492
#        213220
#        222615
#        231690
#
# Disc length: 3208 seconds
#
# Revision: 9
# Processed by: cddbd v1.5.2PL0 Copyright (c) Steve Scherf et al.
# Submitted via: ExactAudioCopyFreeDBPlugin 1.0
#
DISCID=6c0c8619
DTITLE=Fats Domino - Antoine "Fats" Domino:  "They Call Me The Fat Man
DTITLE=. . ." - The Legendary Imperial Recordings) [box set]
DYEAR=1991
DGENRE=Rhythm and Blues
TTITLE0=I Can't Go On (Rosalie)
TTITLE1=I'm in Love Again
TTITLE2=Bo Weevil
TTITLE3=Don't Blame it on Me
TTITLE4=If You Need Me (version #2)
TTITLE5=So Long
TTITLE6=My Blue Heaven
TTITLE7=Ida Jane
TTITLE8=When My Dreamboat Comes Home
TTITLE9=What's the Reason I'm Not Pleasing You
TTITLE10=Set Me Free (The Twist Set Me Free) (version #2)
TTITLE11=Blueberry Hill
TTITLE12=Honey Chile
TTITLE13=I'm Walkin'
TTITLE14=What Will I Tell My Heart
TTITLE15=My Happiness
TTITLE16=Don't Deceive Me
TTITLE17=The Rooster Song
TTITLE18=Telling Lies
TTITLE19=It's You I Love
TTITLE20=Valley of Tears
TTITLE21=Wait and See
TTITLE22=Sailor Boy
TTITLE23=The Big Beat
TTITLE24=Little Mary
EXTD=
EXTT0=
EXTT1=
EXTT2=
EXTT3=
EXTT4=
EXTT5=
EXTT6=
EXTT7=
EXTT8=
EXTT9=
EXTT10=
EXTT11=
EXTT12=
EXTT13=
EXTT14=
EXTT15=
EXTT16=
EXTT17=
EXTT18=
EXTT19=
EXTT20=
EXTT21=
EXTT22=
EXTT23=
EXTT24=
PLAYORDER=
